<?xml version="1.0" encoding="UTF-8"?>
<svg width="20px" height="20px" viewBox="0 0 20 20" version="1.1" xmlns="http://www.w3.org/2000/svg" xmlns:xlink="http://www.w3.org/1999/xlink">
    <title>Group 24</title>
    <g id="Main---Desktop" stroke="none" stroke-width="1" fill="none" fill-rule="evenodd">
        <g id="Form-(All-No-Selected)" transform="translate(-40.000000, -253.000000)" fill-rule="nonzero">
            <g id="Group-19" transform="translate(30.000000, 85.000000)">
                <g id="Group-7" transform="translate(10.000000, 53.000000)">
                    <g id="Group-24" transform="translate(0.000000, 115.000000)">
                        <path d="M14,11 L11,11 L11,14 C11,14.55 10.55,15 10,15 C9.45,15 9,14.55 9,14 L9,11 L6,11 C5.45,11 5,10.55 5,10 C5,9.45 5.45,9 6,9 L9,9 L9,6 C9,5.45 9.45,5 10,5 C10.55,5 11,5.45 11,6 L11,9 L14,9 C14.55,9 15,9.45 15,10 C15,10.55 14.55,11 14,11 Z" id="Shape" fill="#7B7B7D"></path>
                        <path d="M10,1 C12.484,1 14.7339206,2.00813412 16.3628932,3.63710678 C17.9918659,5.26607944 19,7.516 19,10 C19,12.484 17.9918659,14.7339206 16.3628932,16.3628932 C14.7339206,17.9918659 12.484,19 10,19 C7.516,19 5.26607944,17.9918659 3.63710678,16.3628932 C2.00813412,14.7339206 1,12.484 1,10 C1,7.516 2.00813412,5.26607944 3.63710678,3.63710678 C5.26607944,2.00813412 7.516,1 10,1 Z" id="Path" stroke="#7B7B7D" stroke-width="2"></path>
                    </g>
                </g>
            </g>
        </g>
    </g>
</svg>