<?xml version="1.0" encoding="UTF-8"?>
<svg width="18px" height="18px" viewBox="0 0 18 18" version="1.1" xmlns="http://www.w3.org/2000/svg" xmlns:xlink="http://www.w3.org/1999/xlink">
    <title>Shape</title>
    <g id="Main---Desktop" stroke="none" stroke-width="1" fill="none" fill-rule="evenodd">
        <g id="Form-(All-No-Selected)" transform="translate(-178.000000, -988.000000)" fill="#00CE45" fill-rule="nonzero">
            <g id="Blue-Button-Copy-4" transform="translate(30.000000, 971.000000)">
                <g id="Group-11" transform="translate(148.000000, 14.000000)">
                    <path d="M9,3 C4.032,3 0,7.032 0,12 C0,16.968 4.032,21 9,21 C13.968,21 18,16.968 18,12 C18,7.032 13.968,3 9,3 Z M12.6,12.9 L9.9,12.9 L9.9,15.6 C9.9,16.095 9.495,16.5 9,16.5 C8.505,16.5 8.1,16.095 8.1,15.6 L8.1,12.9 L5.4,12.9 C4.905,12.9 4.5,12.495 4.5,12 C4.5,11.505 4.905,11.1 5.4,11.1 L8.1,11.1 L8.1,8.4 C8.1,7.905 8.505,7.5 9,7.5 C9.495,7.5 9.9,7.905 9.9,8.4 L9.9,11.1 L12.6,11.1 C13.095,11.1 13.5,11.505 13.5,12 C13.5,12.495 13.095,12.9 12.6,12.9 Z" id="Shape"></path>
                </g>
            </g>
        </g>
    </g>
</svg>