<?xml version="1.0" encoding="UTF-8"?>
<svg width="16px" height="16px" viewBox="0 0 16 16" version="1.1" xmlns="http://www.w3.org/2000/svg" xmlns:xlink="http://www.w3.org/1999/xlink">
    <title>Shape</title>
    <g id="Main---Desktop" stroke="none" stroke-width="1" fill="none" fill-rule="evenodd">
        <g id="Form-(All-No-Selected)" transform="translate(-750.000000, -918.000000)" fill="#FFFFFF" fill-rule="nonzero">
            <g id="Blue-Button-Copy-3" transform="translate(653.000000, 901.000000)">
                <g id="Group-13" transform="translate(97.000000, 13.000000)">
                    <path d="M14.2222222,4 L1.77777778,4 C0.8,4 0,4.8 0,5.77777778 L0,18.2222222 C0,19.2 0.8,20 1.77777778,20 L14.2222222,20 C15.2,20 16,19.2 16,18.2222222 L16,5.77777778 C16,4.8 15.2,4 14.2222222,4 Z M9.38666667,7.13777778 L9.38666667,7.13777778 C9.64444444,6.88 10.0711111,6.88 10.3288889,7.13777778 L11.1111111,7.92 L11.8933333,7.13777778 C12.1511111,6.88 12.5777778,6.88 12.8355556,7.13777778 L12.8355556,7.13777778 C13.0933333,7.39555556 13.0933333,7.82222222 12.8355556,8.08 L12.0533333,8.86222222 L12.8355556,9.64444444 C13.0933333,9.90222222 13.0933333,10.3288889 12.8355556,10.5866667 L12.8355556,10.5866667 C12.5777778,10.8444444 12.1511111,10.8444444 11.8933333,10.5866667 L11.1111111,9.81333333 L10.3288889,10.5955556 C10.0711111,10.8533333 9.64444444,10.8533333 9.38666667,10.5955556 L9.38666667,10.5955556 C9.12888889,10.3377778 9.12888889,9.91111111 9.38666667,9.65333333 L10.1688889,8.87111111 L9.38666667,8.08888889 C9.12,7.82222222 9.12,7.39555556 9.38666667,7.13777778 Z M3.55555556,8.19555556 L6.66666667,8.19555556 C7.03111111,8.19555556 7.33333333,8.49777778 7.33333333,8.86222222 L7.33333333,8.86222222 C7.33333333,9.22666667 7.03111111,9.52888889 6.66666667,9.52888889 L3.55555556,9.52888889 C3.19111111,9.52888889 2.88888889,9.22666667 2.88888889,8.86222222 L2.88888889,8.86222222 C2.88888889,8.49777778 3.19111111,8.19555556 3.55555556,8.19555556 Z M6.88888889,15.5555556 L5.77777778,15.5555556 L5.77777778,16.6666667 C5.77777778,17.0311111 5.47555556,17.3333333 5.11111111,17.3333333 L5.11111111,17.3333333 C4.74666667,17.3333333 4.44444444,17.0311111 4.44444444,16.6666667 L4.44444444,15.5555556 L3.33333333,15.5555556 C2.96888889,15.5555556 2.66666667,15.2533333 2.66666667,14.8888889 L2.66666667,14.8888889 C2.66666667,14.5244444 2.96888889,14.2222222 3.33333333,14.2222222 L4.44444444,14.2222222 L4.44444444,13.1111111 C4.44444444,12.7466667 4.74666667,12.4444444 5.11111111,12.4444444 L5.11111111,12.4444444 C5.47555556,12.4444444 5.77777778,12.7466667 5.77777778,13.1111111 L5.77777778,14.2222222 L6.88888889,14.2222222 C7.25333333,14.2222222 7.55555556,14.5244444 7.55555556,14.8888889 L7.55555556,14.8888889 C7.55555556,15.2533333 7.25333333,15.5555556 6.88888889,15.5555556 Z M12.6666667,16.6666667 L9.55555556,16.6666667 C9.19111111,16.6666667 8.88888889,16.3644444 8.88888889,16 L8.88888889,16 C8.88888889,15.6355556 9.19111111,15.3333333 9.55555556,15.3333333 L12.6666667,15.3333333 C13.0311111,15.3333333 13.3333333,15.6355556 13.3333333,16 L13.3333333,16 C13.3333333,16.3644444 13.0311111,16.6666667 12.6666667,16.6666667 Z M12.6666667,14.4444444 L9.55555556,14.4444444 C9.19111111,14.4444444 8.88888889,14.1422222 8.88888889,13.7777778 L8.88888889,13.7777778 C8.88888889,13.4133333 9.19111111,13.1111111 9.55555556,13.1111111 L12.6666667,13.1111111 C13.0311111,13.1111111 13.3333333,13.4133333 13.3333333,13.7777778 L13.3333333,13.7777778 C13.3333333,14.1422222 13.0311111,14.4444444 12.6666667,14.4444444 Z" id="Shape"></path>
                </g>
            </g>
        </g>
    </g>
</svg>