<?xml version="1.0" encoding="UTF-8"?>
<svg width="209px" height="40px" viewBox="0 0 209 40" version="1.1" xmlns="http://www.w3.org/2000/svg" xmlns:xlink="http://www.w3.org/1999/xlink">
    <title>Group 5</title>
    <g id="Desktop" stroke="none" stroke-width="1" fill="none" fill-rule="evenodd">
        <g id="Purchases+Debt" transform="translate(-20.000000, -20.000000)" fill-rule="nonzero">
            <g id="Group-5" transform="translate(20.000000, 20.000000)">
                <g id="napkin" fill="#1072FF">
                    <path d="M32.2650147,2.50854492 C32.2650147,1.12518313 31.1395264,0 29.7561645,0 L0.665588359,0.000305175781 C0.34729,0.000305175781 0.131530781,0.0375366406 0,0.0762939063 C0.0659179688,0.196228047 0.191955547,0.37536625 0.416870156,0.600280781 L5.20446781,5.38787844 L32.2650147,5.38757328 L32.2650147,2.50854492 Z" id="Path"></path>
                    <path d="M37.4914551,7.73498531 L34.6124267,7.73498531 L34.6121216,31.5994263 C34.6121216,33.2971191 35.6622314,35.8374023 36.8621827,37.0458984 L39.3994141,39.5831298 C39.3994141,39.5831298 39.3994141,39.5834351 39.3997192,39.5834351 C39.6246337,39.8083496 39.803772,39.934082 39.9237061,40 C39.9621582,39.8684692 39.9996948,39.65271 39.9996948,39.3347168 L40,10.2435303 C40,8.86047359 38.8745117,7.73498531 37.4914551,7.73498531 Z" id="Path"></path>
                    <path d="M32.2650147,7.73498531 L7.55187984,7.73529055 L31.6638184,31.847229 C31.6638184,31.847229 31.6638184,31.8475342 31.6641235,31.8475342 L32.3233032,32.5067139 C32.2848511,32.1951294 32.2647095,31.8908691 32.2647095,31.5994263 L32.2650147,7.73498531 Z" id="Path"></path>
                </g>
                <path d="M52.78,27 C55.74,27 57.44,25.5 57.44,23.18 C57.44,21.58 56.38,20.14 54.74,19.8 C56.1,19.4 57.12,18.3 57.12,16.6 C57.12,14.38 55.42,12.96 52.56,12.96 L46.24,12.96 L46.24,27 L52.78,27 Z M51.9,18.64 L49.66,18.64 L49.66,15.7 L51.9,15.7 C53.02,15.7 53.64,16.22 53.64,17.18 C53.64,18.14 53.02,18.64 51.9,18.64 Z M52.18,24.24 L49.66,24.24 L49.66,21.14 L52.14,21.14 C53.28,21.14 53.98,21.72 53.98,22.72 C53.98,23.72 53.32,24.24 52.18,24.24 Z M62.14,27.16 C63.8,27.16 64.98,26.4 65.6,25.42 L65.6,27 L69.02,27 L69.02,15.84 L65.6,15.84 L65.6,17.42 C65,16.44 63.82,15.68 62.16,15.68 C59.42,15.68 57.24,17.88 57.24,21.4 C57.24,24.92 59.42,27.16 62.14,27.16 Z M63.16,24.18 C61.88,24.18 60.72,23.18 60.72,21.4 C60.72,19.62 61.88,18.66 63.16,18.66 C64.46,18.66 65.6,19.64 65.6,21.42 C65.6,23.2 64.46,24.18 63.16,24.18 Z M74.92,27.16 C77.72,27.16 79.7,25.54 80.28,22.96 L76.64,22.96 C76.34,23.78 75.8,24.24 74.86,24.24 C73.64,24.24 72.8,23.28 72.8,21.42 C72.8,19.56 73.64,18.6 74.86,18.6 C75.8,18.6 76.36,19.1 76.64,19.88 L80.28,19.88 C79.7,17.22 77.72,15.68 74.92,15.68 C71.64,15.68 69.32,17.9 69.32,21.42 C69.32,24.96 71.64,27.16 74.92,27.16 Z M84.02,27 L84.02,22.32 L87.42,27 L91.66,27 L86.98,21.44 L91.62,15.84 L87.4,15.84 L84.02,20.38 L84.02,12.2 L80.6,12.2 L80.6,27 L84.02,27 Z M98.1,27.14 C102.08,27.14 105.28,24.16 105.28,19.94 C105.28,15.72 102.1,12.76 98.1,12.76 C94.12,12.76 90.88,15.72 90.88,19.94 C90.88,24.16 94.12,27.14 98.1,27.14 Z M98.1,24.02 C95.82,24.02 94.38,22.4 94.38,19.94 C94.38,17.44 95.82,15.86 98.1,15.86 C100.34,15.86 101.8,17.44 101.8,19.94 C101.8,22.4 100.34,24.02 98.1,24.02 Z M109.44,27 L109.44,18.68 L111.28,18.68 L111.28,15.84 L109.44,15.84 L109.44,15.74 C109.44,14.56 109.9,14.16 111.22,14.24 L111.22,11.34 C107.82,11.16 106.02,12.6 106.02,15.52 L106.02,15.84 L104.78,15.84 L104.78,18.68 L106.02,18.68 L106.02,27 L109.44,27 Z M117.76,27 L117.76,15.7 L121.48,15.7 L121.48,12.96 L110.62,12.96 L110.62,15.7 L114.34,15.7 L114.34,27 L117.76,27 Z M125.12,27 L125.12,20.94 C125.12,19.42 125.96,18.58 127.26,18.58 C128.56,18.58 129.4,19.42 129.4,20.94 L129.4,27 L132.8,27 L132.8,20.48 C132.8,17.48 131.1,15.72 128.56,15.72 C127.02,15.72 125.8,16.38 125.12,17.34 L125.12,12.2 L121.7,12.2 L121.7,27 L125.12,27 Z M138.64,27.16 C141.42,27.16 143.4,25.48 143.94,23.3 L140.3,23.3 C140.02,23.9 139.48,24.38 138.52,24.38 C137.42,24.38 136.52,23.7 136.4,22.24 L144.14,22.24 C144.18,21.9 144.2,21.56 144.2,21.24 C144.2,17.84 141.9,15.68 138.64,15.68 C135.32,15.68 133,17.88 133,21.42 C133,24.96 135.36,27.16 138.64,27.16 Z M140.7,20.34 L136.42,20.34 C136.62,19.1 137.48,18.42 138.6,18.42 C139.74,18.42 140.7,19.12 140.7,20.34 Z M147.92,27 L147.92,18.34 L153.64,27 L157.06,27 L157.06,12.96 L153.64,12.96 L153.64,21.66 L147.92,12.96 L144.5,12.96 L144.5,27 L147.92,27 Z M162.26,27.16 C163.92,27.16 165.1,26.4 165.72,25.42 L165.72,27 L169.14,27 L169.14,15.84 L165.72,15.84 L165.72,17.42 C165.12,16.44 163.94,15.68 162.28,15.68 C159.54,15.68 157.36,17.88 157.36,21.4 C157.36,24.92 159.54,27.16 162.26,27.16 Z M163.28,24.18 C162,24.18 160.84,23.18 160.84,21.4 C160.84,19.62 162,18.66 163.28,18.66 C164.58,18.66 165.72,19.64 165.72,21.42 C165.72,23.2 164.58,24.18 163.28,24.18 Z M173.54,32.32 L173.54,25.44 C174.16,26.38 175.34,27.16 176.98,27.16 C179.72,27.16 181.9,24.92 181.9,21.4 C181.9,17.88 179.72,15.68 176.98,15.68 C175.34,15.68 174.16,16.44 173.54,17.42 L173.54,15.84 L170.12,15.84 L170.12,32.32 L173.54,32.32 Z M175.96,24.18 C174.68,24.18 173.52,23.2 173.52,21.42 C173.52,19.64 174.68,18.66 175.96,18.66 C177.26,18.66 178.42,19.62 178.42,21.4 C178.42,23.18 177.26,24.18 175.96,24.18 Z M185.62,27 L185.62,22.32 L189.02,27 L193.26,27 L188.58,21.44 L193.22,15.84 L189,15.84 L185.62,20.38 L185.62,12.2 L182.2,12.2 L182.2,27 L185.62,27 Z M194.78,14.68 C195.98,14.68 196.8,13.86 196.8,12.84 C196.8,11.8 195.98,10.98 194.78,10.98 C193.56,10.98 192.74,11.8 192.74,12.84 C192.74,13.86 193.56,14.68 194.78,14.68 Z M196.48,27 L196.48,15.84 L193.06,15.84 L193.06,27 L196.48,27 Z M200.88,27 L200.88,20.94 C200.88,19.42 201.72,18.58 203.02,18.58 C204.32,18.58 205.16,19.42 205.16,20.94 L205.16,27 L208.56,27 L208.56,20.48 C208.56,17.48 206.84,15.72 204.26,15.72 C202.76,15.72 201.56,16.38 200.88,17.32 L200.88,15.84 L197.46,15.84 L197.46,27 L200.88,27 Z" id="BackOfTheNapkin" fill="#2A2A2A"></path>
            </g>
        </g>
    </g>
</svg>