<svg xmlns="http://www.w3.org/2000/svg" xmlns:xlink="http://www.w3.org/1999/xlink" width="17px" height="18px" viewBox="0 0 17 18" version="1.1">
    <title>Path</title>
    <g id="Main---Desktop" stroke="none" stroke-width="1" fill="none" fill-rule="evenodd">
        <g id="Form-(All-No-Selected)" transform="translate(-687.000000, -987.000000)" fill="#1072FF" fill-rule="nonzero">
            <g id="Blue-Button-Copy-5" transform="translate(495.000000, 971.000000)">
                <g id="Group-12" transform="translate(192.000000, 14.000000)">
                    <path d="M13.5542169,14.7228916 C12.8674699,14.7228916 12.253012,14.9939759 11.7831325,15.4186747 L5.34036145,11.6686747 C5.38554217,11.4608434 5.42168675,11.253012 5.42168675,11.0361446 C5.42168675,10.8192771 5.38554217,10.6114458 5.34036145,10.4036145 L11.7108434,6.68975904 C12.1987952,7.14156627 12.8403614,7.42168675 13.5542169,7.42168675 C15.0542169,7.42168675 16.2650602,6.21084337 16.2650602,4.71084337 C16.2650602,3.21084337 15.0542169,2 13.5542169,2 C12.0542169,2 10.8433735,3.21084337 10.8433735,4.71084337 C10.8433735,4.92771084 10.8795181,5.13554217 10.9246988,5.34337349 L4.55421687,9.05722892 C4.06626506,8.60542169 3.4246988,8.3253012 2.71084337,8.3253012 C1.21084337,8.3253012 0,9.53614458 0,11.0361446 C0,12.5361446 1.21084337,13.746988 2.71084337,13.746988 C3.4246988,13.746988 4.06626506,13.4668675 4.55421687,13.0150602 L10.9879518,16.7740964 C10.9427711,16.9638554 10.9156627,17.1626506 10.9156627,17.3614458 C10.9156627,18.8162651 12.0993976,20 13.5542169,20 C15.0090361,20 16.1927711,18.8162651 16.1927711,17.3614458 C16.1927711,15.9066265 15.0090361,14.7228916 13.5542169,14.7228916 Z" id="Path"/>
                </g>
            </g>
        </g>
    </g>
</svg>