<?xml version="1.0" encoding="UTF-8"?>
<svg width="18px" height="18px" viewBox="0 0 18 18" version="1.1" xmlns="http://www.w3.org/2000/svg" xmlns:xlink="http://www.w3.org/1999/xlink">
    <title>Combined Shape</title>
    <g id="Main---Desktop" stroke="none" stroke-width="1" fill="none" fill-rule="evenodd">
        <g id="Form-(All-No-Selected)" transform="translate(-1088.000000, -988.000000)" fill="#FFFFFF" fill-rule="nonzero">
            <g id="Blue-Button-Copy-3" transform="translate(1001.000000, 971.000000)">
                <g id="Group-13" transform="translate(87.000000, 14.000000)">
                    <path d="M3.98673082,12.5104293 C4.11727964,12.5104293 4.23032096,12.6043075 4.25071701,12.7332711 C4.61228015,15.0192844 6.59622757,16.7728163 8.98231887,16.7728163 C10.0329444,16.7728163 11.0054732,16.4326708 11.7960579,15.8569315 C11.9008211,15.7806665 12.0456365,15.7926434 12.1372602,15.8842671 L12.1372602,15.8842671 L14.7731063,18.5201132 C14.8823784,18.6293853 14.8756149,18.809568 14.7570783,18.9087301 C13.1516027,20.2520161 11.1487739,20.9885284 9.03188233,20.9998713 C6.64216271,21.0126585 4.33557726,20.0720448 2.63756204,18.390445 C1.10863324,16.8763113 0.189225796,14.9126895 0.00104669253,12.7965728 C-0.0126563534,12.6426337 0.109966533,12.5104293 0.264504482,12.5104293 L0.264504482,12.5104293 Z M16.6389046,12.5104293 C16.7944289,12.5104293 16.917721,12.6442894 16.9019749,12.7990387 C16.7447245,14.3449818 16.1423893,15.7959195 15.1574609,17.0019989 C15.0591089,17.1224377 14.8773763,17.1298705 14.7674349,17.0199291 L14.7674349,17.0199291 L12.8846223,15.1371165 C12.7934565,15.0459507 12.7802466,14.9013818 12.8561946,14.7971471 C13.2926489,14.1982289 13.5938341,13.4948293 13.7143434,12.7321086 C13.7345281,12.604237 13.8454207,12.5104293 13.9749127,12.5104293 L13.9749127,12.5104293 Z M8.98228364,8.24804225 C11.0412279,8.24804225 12.7162756,9.9230899 12.7162756,11.9820342 C12.7162756,14.0409785 11.0412279,15.7160261 8.98228364,15.7160261 C6.92333935,15.7160261 5.2482917,14.0409785 5.2482917,11.9820342 C5.2482917,9.9230899 6.92333935,8.24804225 8.98228364,8.24804225 Z M10.7964401,12.5104997 L7.16812718,12.5104997 C6.87631219,12.5104997 6.6397321,12.7470798 6.6397321,13.0388948 C6.6397321,13.3307098 6.87631219,13.5672899 7.16812718,13.5672899 L7.16812718,13.5672899 L10.7964401,13.5672899 C11.0882551,13.5672899 11.3248352,13.3307098 11.3248352,13.0388948 C11.3248352,12.7470798 11.0882551,12.5104997 10.7964401,12.5104997 L10.7964401,12.5104997 Z M10.0918781,10.3968137 L7.87268919,10.3968137 C7.5808742,10.3968137 7.3442941,10.6333938 7.3442941,10.9252088 C7.3442941,11.2170238 7.5808742,11.4536039 7.87268919,11.4536039 L7.87268919,11.4536039 L10.0918781,11.4536039 C10.3836931,11.4536039 10.6202732,11.2170238 10.6202732,10.9252088 C10.6202732,10.6333938 10.3836931,10.3968137 10.0918781,10.3968137 L10.0918781,10.3968137 Z M8.16203834,4.06347021 C8.31805579,4.047407 8.45388856,4.16960717 8.45388856,4.32643483 L8.45388856,4.32643483 L8.45388856,6.98965174 C8.45388856,7.11886196 8.36053876,7.23000106 8.23287851,7.25015052 C6.19024401,7.57240107 4.57268575,9.18999456 4.25039997,11.2325938 C4.23025051,11.3602189 4.11911141,11.4536039 3.98990119,11.4536039 L3.98990119,11.4536039 L1.32668428,11.4536039 C1.16985662,11.4536039 1.04769168,11.3177359 1.06371966,11.1617537 C1.44793334,7.42575382 4.4260385,4.44764867 8.16203834,4.06347021 Z M9.79999265,3.00107905 C11.9001518,3.18855363 13.8499296,4.09637161 15.3589908,5.60539753 C16.8679814,7.11442344 17.7757994,9.06416608 17.9633092,11.16429 C17.9771532,11.3194972 17.8560098,11.4536039 17.7002037,11.4536039 L17.7002037,11.4536039 L13.9747365,11.4536039 C13.8454911,11.4536039 13.734352,11.3602541 13.7142378,11.2325938 C13.391952,9.19002979 11.7743585,7.5724363 9.73172401,7.25015052 C9.60406375,7.23003628 9.51071395,7.11889718 9.51071395,6.98965174 L9.51071395,6.98965174 L9.51071395,3.26418458 C9.51071395,3.10834326 9.6447854,2.9872351 9.79999265,3.00107905 Z" id="Combined-Shape"></path>
                </g>
            </g>
        </g>
    </g>
</svg>